:SAMPLES-PER-SECOND 30
:FULLY-SPECIFIED
:DEGREES
33
root  76.8305 39.2974 -0.925448 178.226 -79.0867 179.376
RightUpLeg  -16.8956 -5.98111 -1.85898
RightLeg  4.05994 -6.82833 3.90197
RightFoot  2.59702 -0.434757 3.72157
RightToes  0.00048216 0.542163 -0.142577
Spine  8.74281 -1.23424 -1.9964
Spine1  10.8461 -2.52579 3.25976
HEad  11.9005 9.8082 -5.88758
LeftShoulder1  7.80834 -10.9015 -47.2905
LeftArm  -9.09212 -0.0726177 -39.2483
LeftForeArm  33.3239 -10.6843 -5.62275
LeftHand  -0.25398 0.0180481 5.50724
RightShoulder  5.59512 8.77274 39.4652
RightArm  0.286102 -18.9631 37.2584
RightForeArm  17.4563 10.9872 7.37296
RightHand  -0.601814 0.494937 -11.9848
LeftUpLeg  7.45038 8.27435 1.05346
LeftLeg  11.6411 16.8858 -2.41534
LeftFoot  -18.6349 -0.0390451 -2.3594
LeftToes  1.06249e-005 4.65856e-005 -8.18498e-006
34
root  75.9657 39.2064 -1.05466 178.075 -78.8251 179.826
RightUpLeg  -17.4317 -6.29361 -0.879834
RightLeg  5.97997 -6.45362 3.33742
RightFoot  4.10254 -0.0341107 0.479945
RightToes  0.00048216 0.542163 -0.142577
Spine  8.43825 -1.44105 -1.43759
Spine1  11.122 -2.77956 3.39394
HEad  12.6241 10.7371 -6.03465
LeftShoulder1  7.61982 -10.5995 -47.132
LeftArm  -7.1364 -0.647506 -39.0854
LeftForeArm  33.083 -12.98 -5.49348
LeftHand  -0.25398 0.0180481 5.50724
RightShoulder  5.58556 8.76784 39.4083
RightArm  -1.42947 -17.7687 35.6349
RightForeArm  18.8781 8.84039 7.52063
RightHand  -0.561177 0.813651 -10.5854
LeftUpLeg  9.06517 8.2617 1.32561
LeftLeg  10.6995 16.7366 -2.8065
LeftFoot  -19.2286 -0.120259 -3.41345
LeftToes  1.06249e-005 4.65856e-005 -8.18498e-006
35
root  75.0242 39.1254 -1.1938 174.518 -79.0042 -176.321
RightUpLeg  -18.0324 -7.59719 0.67619
RightLeg  8.90767 -4.69411 2.54119
RightFoot  5.59464 0.343088 -2.06574
RightToes  0.00048216 0.542163 -0.142577
Spine  8.55234 -1.77795 0.135729
Spine1  10.8212 -3.05792 3.43777
HEad  13.502 10.333 -6.31872
LeftShoulder1  7.57239 -10.5005 -47.1687
LeftArm  -6.00933 -0.53308 -38.5268
LeftForeArm  31.7625 -15.3511 -4.94214
LeftHand  -0.25398 0.0180481 5.50724
RightShoulder  5.49816 8.5875 39.3667
RightArm  -3.88262 -16.5258 33.9301
RightForeArm  19.1459 7.04125 7.12136
RightHand  -0.479708 0.868903 -9.02452
LeftUpLeg  10.5928 8.49156 2.17423
LeftLeg  10.2495 16.149 -2.54302
LeftFoot  -19.7882 -0.199431 -4.31207
LeftToes  1.06249e-005 4.65856e-005 -8.18498e-006
36
root  74.0222 39.0432 -1.32161 166.797 -79.375 -168.415
RightUpLeg  -18.4001 -9.82648 2.82101
RightLeg  12.253 -2.41273 1.5943
RightFoot  5.2495 0.47138 -2.98505
RightToes  0.00048216 0.542163 -0.142577
Spine  9.01 -2.35993 3.11239
Spine1  10.2002 -3.28136 2.80695
HEad  14.1557 10.4372 -6.67313
LeftShoulder1  7.65174 -10.6824 -47.052
LeftArm  -5.86455 0.52713 -37.8515
LeftForeArm  29.6344 -17.8877 -4.21222
LeftHand  -0.25398 0.0180481 5.50724
RightShoulder  5.39504 8.31092 39.5484
RightArm  -5.9695 -14.9012 32.3269
RightForeArm  18.4103 5.70369 6.46538
RightHand  -0.574529 1.17821 -10.2542
LeftUpLeg  11.799 9.69842 3.78503
LeftLeg  11.022 14.4734 -1.33763
LeftFoot  -20.427 -0.239599 -4.54632
LeftToes  1.06249e-005 4.65856e-005 -8.18498e-006
37
root  72.9895 38.9669 -1.47643 157.753 -79.6244 -159.307
RightUpLeg  -18.2916 -11.9073 4.85676
RightLeg  15.3275 -0.97933 0.713177
RightFoot  3.13137 0.458202 -3.44589
RightToes  0.00048216 0.542163 -0.142577
Spine  9.28682 -3.02026 6.24468
Spine1  9.90855 -3.56716 2.25557
HEad  14.9021 10.7752 -7.10122
LeftShoulder1  7.73646 -10.8906 -46.8827
LeftArm  -6.30715 2.16445 -36.9053
LeftForeArm  27.4094 -20.6621 -3.66409
LeftHand  -0.25398 0.0180481 5.50724
RightShoulder  5.30938 8.07639 39.723
RightArm  -7.59385 -12.6287 30.9828
RightForeArm  16.0968 4.48385 6.03865
RightHand  -0.767822 1.66242 -12.8064
LeftUpLeg  12.3115 12.6782 5.98605
LeftLeg  13.5282 10.3742 0.612943
LeftFoot  -20.8575 -0.375067 -5.97992
LeftToes  1.06249e-005 4.65856e-005 -8.18498e-006
38
root  71.9881 38.9107 -1.70911 151.291 -80.185 -152.826
RightUpLeg  -17.8703 -13.2444 5.8337
RightLeg  17.9474 -0.7754 0.156602
RightFoot  0.625693 0.460052 -4.34745
RightToes  0.00048216 0.542163 -0.142577
Spine  9.38186 -3.46207 7.85402
Spine1  9.79207 -3.97413 2.83209
HEad  16.0195 10.6735 -7.63879
LeftShoulder1  7.8287 -11.0128 -47.0464
LeftArm  -7.12144 3.69743 -35.4249
LeftForeArm  26.1536 -23.1813 -3.63039
LeftHand  -0.25398 0.0180481 5.50724
RightShoulder  5.23661 7.94317 39.6257
RightArm  -8.9528 -10.2421 29.9698
RightForeArm  12.4957 3.79484 5.87995
RightHand  -0.889383 1.89275 -14.3467
LeftUpLeg  11.0146 14.7681 7.55363
LeftLeg  18.9723 6.39721 2.85074
LeftFoot  -19.7465 -0.58962 -9.79097
LeftToes  1.06249e-005 4.65856e-005 -8.18498e-006
39
root  71.0608 38.8942 -1.99142 146.743 -81.2454 -148.209
RightUpLeg  -17.294 -14.4072 5.90229
RightLeg  19.977 -0.905732 -0.0849518
RightFoot  -1.46048 0.433734 -5.11441
RightToes  0.00048216 0.542163 -0.142577
Spine  9.54304 -3.53715 8.48902
Spine1  9.4558 -4.13297 3.88855
HEad  17.153 10.053 -7.99178
LeftShoulder1  7.99104 -11.1867 -47.4628
LeftArm  -8.08911 4.72668 -33.758
LeftForeArm  26.3885 -24.9906 -3.94781
LeftHand  -0.25398 0.0180481 5.50724
RightShoulder  5.18731 7.93524 39.2463
RightArm  -10.2002 -8.59649 29.3642
RightForeArm  9.41969 4.45177 5.84194
RightHand  -0.920727 1.93592 -14.7475
LeftUpLeg  7.02838 11.6396 7.58019
LeftLeg  28.1669 7.68682 4.82003
LeftFoot  -15.3346 -0.361266 -12.777
LeftToes  1.06249e-005 4.65856e-005 -8.18498e-006
40
root  70.1831 38.9247 -2.25723 141.774 -82.321 -143.213
RightUpLeg  -16.3268 -15.5935 5.62621
RightLeg  21.2892 -0.990173 -0.160729
RightFoot  -3.33585 0.342357 -5.19948
RightToes  0.00048216 0.542163 -0.142577
Spine  9.7339 -3.29341 9.65741
Spine1  9.08487 -3.66406 3.97751
HEad  17.8733 9.02828 -7.93118
LeftShoulder1  8.15721 -11.4384 -47.6394
LeftArm  -9.06873 5.35463 -32.6126
LeftForeArm  27.7007 -26.4334 -4.19656
LeftHand  -0.25398 0.0180481 5.50724
RightShoulder  5.17021 8.03313 38.7378
RightArm  -10.9586 -7.7018 29.1419
RightForeArm  7.7201 6.42746 5.95534
RightHand  -0.934575 2.08384 -14.6833
LeftUpLeg  1.59424 9.70108 7.63111
LeftLeg  38.7056 7.67701 6.8894
LeftFoot  -8.15449 0.329426 -11.0516
LeftToes  1.06249e-005 4.65856e-005 -8.18498e-006
41
root  69.3183 38.9753 -2.48493 135.055 -83.1992 -136.608
RightUpLeg  -14.8444 -16.3671 5.21879
RightLeg  22.0179 -1.49099 -0.192269
RightFoot  -5.22541 0.232716 -5.01421
RightToes  0.00048216 0.542163 -0.142577
Spine  9.69303 -2.94995 11.5101
Spine1  9.27194 -2.82434 3.15407
HEad  18.227 7.22648 -7.6493
LeftShoulder1  8.20664 -11.5871 -47.4533
LeftArm  -10.3556 5.85393 -32.0942
LeftForeArm  29.2262 -28.126 -4.48756
LeftHand  -0.25398 0.0180481 5.50724
RightShoulder  5.18423 8.17416 38.3343
RightArm  -10.6269 -6.55295 28.9758
RightForeArm  6.56177 8.6908 6.29356
RightHand  -0.947132 2.32141 -14.4418
LeftUpLeg  -3.94106 8.56063 7.69936
LeftLeg  47.6036 5.948 7.32102
LeftFoot  -2.59635 0.527307 -6.52267
LeftToes  1.06249e-005 4.65856e-005 -8.18498e-006
42
root  68.4284 39.1036 -2.71978 128.75 -84.3566 -130.458
RightUpLeg  -12.7173 -16.2203 4.15332
RightLeg  21.7495 -2.88847 -0.122306
RightFoot  -6.71213 0.149818 -4.82141
RightToes  0.00048216 0.542163 -0.142577
Spine  9.21638 -2.58113 12.49
Spine1  10.0056 -2.14443 2.42003
HEad  18.4357 5.2728 -7.48917
LeftShoulder1  8.15048 -11.5517 -47.2356
LeftArm  -11.645 6.42499 -31.7283
LeftForeArm  29.7155 -30.0537 -4.89775
LeftHand  -0.25398 0.0180481 5.50724
RightShoulder  5.24992 8.33632 38.2831
RightArm  -8.94135 -4.42559 28.4593
RightForeArm  5.1918 10.4118 6.67043
RightHand  -0.964905 2.58376 -14.248
LeftUpLeg  -8.76295 7.86226 7.21831
LeftLeg  52.9202 3.84648 5.93394
LeftFoot  -1.34229 0.388846 -4.30872
LeftToes  1.06249e-005 4.65856e-005 -8.18498e-006
43
root  67.5191 39.3037 -2.96921 122.512 -85.9134 -124.224
RightUpLeg  -10.2667 -15.0679 2.45609
RightLeg  20.5927 -5.23958 0.115045
RightFoot  -7.69258 0.0867763 -4.3478
RightToes  0.00048216 0.542163 -0.142577
Spine  8.55037 -2.17798 12.3345
Spine1  10.6106 -1.68011 2.01545
HEad  18.6624 3.47396 -7.56412
LeftShoulder1  8.08284 -11.4638 -47.1157
LeftArm  -12.6217 7.24833 -31.298
LeftForeArm  29.3337 -31.6549 -5.29453
LeftHand  -0.25398 0.0180481 5.50724
RightShoulder  5.35751 8.51751 38.5015
RightArm  -6.9568 -1.8448 27.6969
RightForeArm  4.26243 11.7352 6.86054
RightHand  -0.98071 2.77931 -14.1478
LeftUpLeg  -12.8919 7.53926 6.08594
LeftLeg  54.1708 2.69296 4.50778
LeftFoot  -2.57966 0.400613 -5.04328
LeftToes  1.06249e-005 4.65856e-005 -8.18498e-006
